<svg xmlns="http://www.w3.org/2000/svg" viewBox="0 0 50 41.776"><path d="M35.488 1.33l3.442.52L50 21.059 39.727 40.751l-5.635.427.028-.052-8.935.65h-.029l-8.713-.637v.011l-5.634-.4L0 21.429l11.611-19.75 5.947-.74-.012.02L25.413 0h.028l7.465.954 2.582.376" fill="#fff"/><g fill="#00f"><path opacity=".05" style="isolation:isolate" d="M47.41 21.144L35.458 1.281 25.441 0h-.028l-.114 20.148 22.111.996z"/><path opacity=".15" style="isolation:isolate" d="M25.299 20.148l-.114 21.628 11.355-.826 10.87-19.692v-.114l-22.111-.996z"/><path opacity=".15" style="isolation:isolate" d="M25.299 20.148L25.413 0 14.912 1.281 2.789 21.116l22.51-.968z"/><path opacity=".3" style="isolation:isolate" d="M2.789 21.116l-.057.142L13.859 40.95l11.298.826h.028l.114-21.628-22.51.968z"/><path d="M11.611 1.679L0 21.429l10.814 19.322 5.634.4L5.378 21 17.558.939zm27.319.171L32.9.939 44.707 21.03 34.092 41.178l5.635-.427L50 21.059z"/></g></svg>
