<svg xmlns="http://www.w3.org/2000/svg" xmlns:xlink="http://www.w3.org/1999/xlink" viewBox="0 0 250 250"><defs><clipPath id="logoClipPath"><path d="M244.85,158.14H197.21Q165.43,83.43,133.68,8.69c-8.72,0-17.43-.07-26.15,0l0,0Q56.3,125,5,241.34H36.6c8-19,16-37.89,23.82-56.91,38.63-.13,77.24.27,115.92.15,7.92,18.93,15.68,37.86,23.54,56.76h32.6q-12.14-28.69-24.38-57.28h36.75Zm-173.23,0q24-57,48.09-113.88c15.38,37.79,30.44,75.68,45.73,113.51C134.16,157.51,102.9,158.14,71.62,158.14Z" class="a" /><path d="M203.09,124.3c1.55,10.39,11.89,18.42,22.35,17.28,12.76-.36,22.52-14.29,18.74-26.47-2.52-10.25-13.44-17.22-23.81-15.26-11.26,1.51-19.55,13.38-17.28,24.48Z" class="dot" /></clipPath></defs><g clip-path="url(#logoClipPath)"><path d="M244.85,158.14H197.21Q165.43,83.43,133.68,8.69c-8.72,0-17.43-.07-26.15,0l0,0Q56.3,125,5,241.34H36.6c8-19,16-37.89,23.82-56.91,38.63-.13,77.24.27,115.92.15,7.92,18.93,15.68,37.86,23.54,56.76h32.6q-12.14-28.69-24.38-57.28h36.75Zm-173.23,0q24-57,48.09-113.88c15.38,37.79,30.44,75.68,45.73,113.51C134.16,157.51,102.9,158.14,71.62,158.14Z" class="a" /><path d="M203.09,124.3c1.55,10.39,11.89,18.42,22.35,17.28,12.76-.36,22.52-14.29,18.74-26.47-2.52-10.25-13.44-17.22-23.81-15.26-11.26,1.51-19.55,13.38-17.28,24.48Z" class="dot" /></g></svg>
