<svg xmlns="http://www.w3.org/2000/svg" fill="none" viewBox="0 0 512 512">
    <path d="M229.7,81.6c13.1-.1,26.2,0,39.2,0,31.7,74.7,63.3,149.5,95.3,224.1,23.8,0,47.6,0,71.5,0,0,12.9,0,25.9,0,38.8-18.4,0-36.7,0-55.1,0,12.2,28.6,24.4,57.3,36.5,85.9-16.3,0-32.6,0-48.9,0-11.8-28.3-23.4-56.8-35.2-85.1-57.9.2-115.9-.4-173.8-.2-11.7,28.5-23.8,56.9-35.7,85.3-15.8,0-31.6,0-47.4,0,51.2-116.3,102.4-232.6,153.7-348.9ZM175.9,305.7c46.9,0,93.8-.9,140.7-.5-22.9-56.7-45.5-113.6-68.6-170.2-24.1,56.9-48.1,113.8-72.1,170.8ZM373.1,255c2.3,15.6,17.8,27.6,33.5,25.9,19.1-.6,33.8-21.5,28.1-39.7-3.7-15.4-20.2-25.8-35.7-22.9-16.9,2.3-29.3,20-25.9,36.7Z" />
    <style>
        path { fill: #000; }
        @media (prefers-color-scheme: dark) {
            path { fill: #FFF; }
        }
    </style>
</svg>
