<svg version="1.1" xmlns="http://www.w3.org/2000/svg" x="0" y="0" viewBox="0 0 120 120" width="120" height="120">
	<path fill="#F39031" d="M91.5,64.5L57.3,98.8c-0.4,0.4-1,0.6-1.5,0.6c-0.6,0-1.1-0.2-1.5-0.6L34.9,79.5c-0.4-0.4-0.6-1-0.6-1.5
	c0-0.6,0.2-1.1,0.6-1.5l3.1-3.1c0.4-0.4,0.9-0.6,1.5-0.6c0.6,0,1.1,0.2,1.5,0.6l14.7,14.7l29.7-29.7c0.4-0.4,1-0.6,1.5-0.6
	c0.6,0,1.1,0.2,1.5,0.6l3.1,3.1c0.4,0.4,0.6,0.9,0.6,1.5C92.1,63.6,91.9,64.1,91.5,64.5z M12.9,111.4h94.3V42.9H12.9V111.4z
	 M38.6,30V10.7c0-0.6-0.2-1.1-0.6-1.5c-0.4-0.4-0.9-0.6-1.5-0.6h-4.3c-0.6,0-1.1,0.2-1.5,0.6c-0.4,0.4-0.6,0.9-0.6,1.5V30
	c0,0.6,0.2,1.1,0.6,1.5c0.4,0.4,0.9,0.6,1.5,0.6h4.3c0.6,0,1.1-0.2,1.5-0.6C38.4,31.1,38.6,30.6,38.6,30z M90,30V10.7
	c0-0.6-0.2-1.1-0.6-1.5c-0.4-0.4-0.9-0.6-1.5-0.6h-4.3c-0.6,0-1.1,0.2-1.5,0.6c-0.4,0.4-0.6,0.9-0.6,1.5V30c0,0.6,0.2,1.1,0.6,1.5
	c0.4,0.4,0.9,0.6,1.5,0.6h4.3c0.6,0,1.1-0.2,1.5-0.6C89.8,31.1,90,30.6,90,30z M115.7,25.7v85.7c0,2.3-0.9,4.3-2.5,6
	c-1.7,1.7-3.7,2.5-6,2.5H12.9c-2.3,0-4.3-0.9-6-2.5s-2.5-3.7-2.5-6V25.7c0-2.3,0.9-4.3,2.5-6c1.7-1.7,3.7-2.5,6-2.5h8.6v-6.4
	c0-3,1.1-5.5,3.1-7.6S29.2,0,32.1,0h4.3c3,0,5.5,1.1,7.6,3.1c2.1,2.1,3.1,4.6,3.1,7.6v6.4h25.7v-6.4c0-3,1.1-5.5,3.1-7.6
	S80.6,0,83.6,0h4.3c3,0,5.5,1.1,7.6,3.1c2.1,2.1,3.1,4.6,3.1,7.6v6.4h8.6c2.3,0,4.3,0.9,6,2.5C114.9,21.4,115.7,23.4,115.7,25.7z"/>
</svg>
