<svg version="1.1" xmlns="http://www.w3.org/2000/svg" x="0" y="0" viewBox="0 0 120 120" width="120" height="120">
	<path fill="#F39031" d="M68.6,36.4v30c0,0.6-0.2,1.1-0.6,1.5s-0.9,0.6-1.5,0.6H45c-0.6,0-1.1-0.2-1.5-0.6c-0.4-0.4-0.6-0.9-0.6-1.5
	v-4.3c0-0.6,0.2-1.1,0.6-1.5c0.4-0.4,0.9-0.6,1.5-0.6h15V36.4c0-0.6,0.2-1.1,0.6-1.5c0.4-0.4,0.9-0.6,1.5-0.6h4.3
	c0.6,0,1.1,0.2,1.5,0.6C68.4,35.3,68.6,35.8,68.6,36.4z M96.4,60c0-6.6-1.6-12.7-4.9-18.3c-3.3-5.6-7.7-10-13.3-13.3
	c-5.6-3.3-11.7-4.9-18.3-4.9s-12.7,1.6-18.3,4.9s-10,7.7-13.3,13.3S23.6,53.4,23.6,60s1.6,12.7,4.9,18.3c3.3,5.6,7.7,10,13.3,13.3
	c5.6,3.3,11.7,4.9,18.3,4.9s12.7-1.6,18.3-4.9c5.6-3.3,10-7.7,13.3-13.3C94.8,72.7,96.4,66.6,96.4,60z M111.4,60
	c0,9.3-2.3,17.9-6.9,25.8c-4.6,7.9-10.8,14.1-18.7,18.7c-7.9,4.6-16.5,6.9-25.8,6.9s-17.9-2.3-25.8-6.9
	c-7.9-4.6-14.1-10.8-18.7-18.7S8.6,69.3,8.6,60s2.3-17.9,6.9-25.8s10.8-14.1,18.7-18.7S50.7,8.6,60,8.6s17.9,2.3,25.8,6.9
	s14.1,10.8,18.7,18.7C109.1,42.1,111.4,50.7,111.4,60z"/>
</svg>
