<svg version="1.1" xmlns="http://www.w3.org/2000/svg" x="0" y="0" viewBox="0 0 120 120" width="120" height="120">
	<path fill="#F39031" d="M91.5,91.8l2.3,10.7c0.1,0.5,0.1,1-0.2,1.5c-0.3,0.5-0.6,0.8-1.1,1l-0.3,0.1c-0.2,0.1-0.4,0.2-0.7,0.2
	c-0.3,0.1-0.6,0.2-1.1,0.3c-0.4,0.1-0.9,0.3-1.4,0.4c-0.5,0.1-1.1,0.2-1.7,0.3s-1.3,0.2-2,0.3c-0.7,0.1-1.5,0.2-2.2,0.3
	c-0.8,0.1-1.6,0.2-2.4,0.2c-0.9,0-1.7,0.1-2.6,0.1c-10.5,0-19.6-2.9-27.4-8.7c-7.8-5.8-13.1-13.7-15.9-23.5h-6.4
	c-0.6,0-1.1-0.2-1.5-0.6c-0.4-0.4-0.6-0.9-0.6-1.5v-7.6c0-0.6,0.2-1.1,0.6-1.5s0.9-0.6,1.5-0.6h4.4c-0.1-2.5-0.1-4.9,0.1-7h-4.5
	c-0.6,0-1.1-0.2-1.5-0.6c-0.4-0.4-0.6-0.9-0.6-1.5v-7.6c0-0.6,0.2-1.1,0.6-1.5c0.4-0.4,0.9-0.6,1.5-0.6h6.6
	c3-9.4,8.4-16.9,16.3-22.6s16.8-8.6,26.8-8.6c4.6,0,8.9,0.5,13,1.5c0.5,0.1,0.9,0.5,1.3,1c0.3,0.5,0.3,1,0.2,1.6l-2.9,10.7
	c-0.1,0.6-0.4,1-0.9,1.3c-0.5,0.3-1,0.3-1.6,0.2L86.8,29c-0.2,0-0.4-0.1-0.8-0.2l-1.2-0.2l-1.5-0.2l-1.7-0.2L79.7,28l-2-0.1
	c-5.6,0-10.7,1.4-15.1,4.3S54.7,39,52.5,44h31.4c0.7,0,1.3,0.3,1.7,0.8c0.4,0.5,0.6,1.1,0.5,1.7l-1.6,7.7c-0.2,1.2-0.9,1.7-2.1,1.7
	H49.6c-0.1,1.7-0.1,4,0,7h30.7c0.7,0,1.2,0.3,1.7,0.8c0.4,0.5,0.5,1.1,0.4,1.8l-1.6,7.5c-0.1,0.5-0.3,0.9-0.7,1.2
	c-0.4,0.3-0.9,0.5-1.3,0.5H52.8c2.1,5.2,5.5,9.4,10,12.4s9.6,4.6,15.3,4.6c0.8,0,1.6,0,2.4-0.1c0.8-0.1,1.5-0.1,2.2-0.2
	c0.7-0.1,1.4-0.2,2-0.3c0.6-0.1,1.2-0.2,1.6-0.3c0.5-0.1,0.9-0.2,1.2-0.3l0.8-0.2l0.3-0.1c0.6-0.2,1.2-0.2,1.7,0.1
	C91,90.7,91.4,91.2,91.5,91.8z"/>
</svg>
