<svg xmlns="http://www.w3.org/2000/svg" viewBox="0 0 1000 1000"><path fill="#F39031" d="M762.4 765.2l19.5 88.8c1.1 4.5.6 8.7-1.7 12.6-2.2 3.9-5.4 6.6-9.5 8.1l-2.8.6c-1.5.7-3.4 1.4-5.9 2-2.4.6-5.4 1.4-8.9 2.5s-7.5 2.1-12 3.1c-4.5.9-9.2 1.9-14.2 2.8-5 .9-10.6 1.9-16.7 2.8-6.1.9-12.4 1.8-18.7 2.5-6.3.7-13.1 1.3-20.4 1.7-7.3.4-14.4.6-21.5.6-87.1 0-163.2-24.3-228.3-72.9s-109.4-114-132.9-196.2h-53c-4.8 0-9-1.8-12.6-5.3-3.5-3.5-5.3-7.7-5.3-12.6V543c0-4.8 1.8-9 5.3-12.6s7.7-5.3 12.6-5.3h36.8c-.7-21.2-.6-40.8.6-58.6h-37.4c-5.2 0-9.5-1.7-12.8-5-3.3-3.3-5-7.6-5-12.8V385c0-5.2 1.7-9.5 5-12.8 3.3-3.3 7.6-5 12.8-5h54.7C315 289 360.3 226.1 426 178.5S566.2 107 649.6 107c38 0 74.1 4.3 108.3 12.8 4.1 1.1 7.8 3.9 11.2 8.4 2.2 4.1 2.8 8.6 1.7 13.4l-24 88.8c-1.1 4.8-3.7 8.5-7.8 10.9-4.1 2.4-8.6 2.9-13.4 1.4l-2.2-.6c-1.5-.4-3.6-.8-6.4-1.4l-9.8-2-12.6-2-14.5-1.7-16.2-1.4-16.5-.6c-46.9 0-88.9 11.9-126.2 35.7s-65.1 56.6-83.7 98.2h261.3c6 0 10.6 2.2 14 6.7 3.7 4.5 5 9.3 3.9 14.5L703.2 452c-1.9 9.7-7.8 14.5-17.9 14.5H412.9c-1.1 13.8-1.1 33.3 0 58.6h256.2c5.6 0 10.2 2.2 14 6.7 3.3 4.5 4.5 9.5 3.3 15.1L673 609.4c-.7 4.1-2.8 7.5-6.1 10.3s-7.1 4.2-11.2 4.2h-216c17.9 43.5 45.7 78.1 83.5 103.6s80.3 38.2 127.6 38.2c6.7 0 13.4-.3 20.1-.8 6.7-.6 12.9-1.2 18.7-2 5.8-.7 11.3-1.6 16.5-2.5s9.8-1.9 13.7-2.8c3.9-.9 7.4-1.8 10.3-2.5l6.7-1.7 2.8-1.1c4.8-1.9 9.7-1.5 14.5 1.1 4.4 2.6 7.2 6.6 8.3 11.8z"/><image src="{{ "images/icons/euro.png" | relURL }}" xmlns:xlink="http://www.w3.org/1999/xlink" xlink:href=""/></svg>
