<svg xmlns="http://www.w3.org/2000/svg" viewBox="0 0 1000 1000"><path fill="#F39031" d="M571.4 303.6v250c0 5.2-1.7 9.5-5 12.8s-7.6 5-12.8 5H375c-5.2 0-9.5-1.7-12.8-5s-5-7.6-5-12.8v-35.7c0-5.2 1.7-9.5 5-12.8s7.6-5 12.8-5h125V303.6c0-5.2 1.7-9.5 5-12.8s7.6-5 12.8-5h35.7c5.2 0 9.5 1.7 12.8 5s5.1 7.6 5.1 12.8zM803.5 500c0-55.1-13.6-105.8-40.7-152.3s-64-83.3-110.5-110.5S555 196.5 500 196.5s-105.8 13.6-152.3 40.7-83.3 64-110.5 110.5S196.5 445 196.5 500s13.6 105.8 40.7 152.3 64 83.3 110.5 110.5S445 803.5 500 803.5s105.8-13.6 152.3-40.7 83.3-64 110.5-110.5 40.7-97.2 40.7-152.3zm125 0c0 77.7-19.2 149.4-57.5 215.1-38.3 65.7-90.3 117.6-155.9 155.9-65.7 38.3-137.3 57.5-215.1 57.5S350.6 909.3 284.9 871c-65.7-38.3-117.6-90.3-155.9-155.9S71.5 577.7 71.5 500 90.7 350.6 129 284.9 219.3 167.3 284.9 129 422.3 71.5 500 71.5 649.4 90.7 715.1 129 832.7 219.3 871 284.9c38.3 65.7 57.5 137.4 57.5 215.1z"/><image src="{{ "images/icons/clock.png" | relURL }}" xmlns:xlink="http://www.w3.org/1999/xlink" xlink:href=""/></svg>
