<svg xmlns="http://www.w3.org/2000/svg" viewBox="0 0 1000 1000"><path fill="#F39031" d="M762.8 537.9L477.1 823.7c-3.7 3.3-8 5-12.8 5s-9.1-1.7-12.8-5L290.7 662.9c-3.3-3.7-5-8-5-12.8 0-4.9 1.7-8.9 5-12.3l25.7-25.7c3.3-3.3 7.4-5 12.3-5s9.1 1.7 12.8 5l122.8 122.8 247.8-247.8c3.7-3.3 8-5 12.8-5 4.9 0 8.9 1.7 12.3 5l25.7 25.7c3.3 3.3 5 7.4 5 12.3s-1.7 9.1-5.1 12.8zM107.1 928.6h785.7V357.1H107.1v571.5zM321.4 250V89.3c0-5.2-1.7-9.5-5-12.8-3.3-3.3-7.6-5-12.8-5h-35.7c-5.2 0-9.5 1.7-12.8 5-3.3 3.3-5 7.6-5 12.8V250c0 5.2 1.7 9.5 5 12.8 3.3 3.3 7.6 5 12.8 5h35.7c5.2 0 9.5-1.7 12.8-5 3.4-3.3 5-7.6 5-12.8zm428.6 0V89.3c0-5.2-1.7-9.5-5-12.8-3.3-3.3-7.6-5-12.8-5h-35.7c-5.2 0-9.5 1.7-12.8 5-3.3 3.3-5 7.6-5 12.8V250c0 5.2 1.7 9.5 5 12.8 3.3 3.3 7.6 5 12.8 5h35.7c5.2 0 9.5-1.7 12.8-5 3.3-3.3 5-7.6 5-12.8zm214.3-35.7v714.3c0 19.4-7.1 36.1-21.2 50.2-14.1 14.1-30.9 21.2-50.2 21.2H107.1c-19.4 0-36.1-7.1-50.2-21.2-14.1-14.1-21.2-30.9-21.2-50.2V214.3c0-19.4 7.1-36.1 21.2-50.2s30.9-21.2 50.2-21.2h71.4V89.3c0-24.6 8.8-45.6 26.2-63.1S243.3 0 267.9 0h35.7c24.6 0 45.6 8.8 63.1 26.2 17.5 17.5 26.2 38.5 26.2 63.1v53.6h214.3V89.3c0-24.6 8.8-45.6 26.2-63.1S671.9 0 696.4 0h35.7c24.6 0 45.6 8.8 63.1 26.2 17.5 17.5 26.2 38.5 26.2 63.1v53.6h71.4c19.4 0 36.1 7.1 50.2 21.2 14.2 14.1 21.3 30.8 21.3 50.2z"/><image src="{{ "images/icons/calendar.png" | relURL }}" xmlns:xlink="http://www.w3.org/1999/xlink" xlink:href=""/></svg>
