<svg height="700pt" preserveAspectRatio="xMidYMid meet" viewBox="0 0 700 700" width="700pt" xmlns="http://www.w3.org/2000/svg"><g transform="matrix(.1 0 0 -.1 0 700)"><path d="m495 6994c-236-28-403-166-472-389-17-58-18-177-18-3105s1-3047 18-3105c57-185 187-315 372-372 58-17 177-18 3105-18s3047 1 3105 18c184 57 315 188 372 372 17 58 18 177 18 3105s-1 3047-18 3105c-57 183-181 309-367 372-53 17-167 18-3070 19-1658 1-3028 0-3045-2zm3715-2762 555-1307 418-3 417-2v-230-230l-319-2-318-3 208-489c115-269 209-493 209-498 0-4-128-7-287-6l-287 3-202 488c-111 269-204 490-206 492-2 1-458 6-1014 10l-1010 7-210-501-209-501h-279c-260 0-278 1-273 18 3 9 404 922 892 2027 488 1106 889 2016 892 2023 4 9 61 12 237 12h231zm1175-321c79-37 148-104 183-179 23-49 27-70 27-152s-4-103-27-152c-33-71-102-146-165-180-182-99-417-20-510 170-25 51-28 68-28 157 0 90 3 106 29 160 32 65 103 143 157 171 99 52 230 54 334 5z"/><path d="m2990 3918c-228-540-416-984-418-987-2-6 1620-3 1625 3 3 3-781 1953-788 1960-2 2-191-437-419-976z"/></g></svg>