<svg xmlns="http://www.w3.org/2000/svg" width="50" height="41.776" viewBox="0 0 50 41.776">
  <path d="M35.488,1.33l3.442.52L50,21.059,39.727,40.751l-5.635.427.028-.052-8.935.65h-.029l-8.713-.637,0,.011-5.634-.4L0,21.429,11.611,1.679l5.947-.74-.012.02L25.413,0h.028l7.465.954,2.582.376" fill="#fff"/>
  <g>
    <g>
      <polygon points="47.41 21.144 35.458 1.281 25.441 0 25.413 0 25.299 20.148 47.41 21.144" fill="blue" opacity="0.05" style="isolation: isolate"/>
      <polygon points="25.299 20.148 25.185 41.776 36.54 40.95 47.41 21.258 47.41 21.144 25.299 20.148" fill="blue" opacity="0.15" style="isolation: isolate"/>
      <polygon points="25.299 20.148 25.413 0 14.912 1.281 2.789 21.116 25.299 20.148" fill="blue" opacity="0.15" style="isolation: isolate"/>
      <polygon points="2.789 21.116 2.732 21.258 13.859 40.95 25.157 41.776 25.185 41.776 25.299 20.148 2.789 21.116" fill="blue" opacity="0.3" style="isolation: isolate"/>
    </g>
    <path d="M11.611,1.679,0,21.429,10.814,40.751l5.634.4L5.378,21,17.558.939ZM38.93,1.85,32.9.939,44.707,21.03,34.092,41.178l5.635-.427L50,21.059Z" fill="blue"/>
  </g>
</svg>
