<svg xmlns="http://www.w3.org/2000/svg" width="1200" height="1200" viewBox="0 0 1200 1200">
	<path d="M1200,1200H0V0H1200Z" fill="#f39031"/>
	<path d="M574.347,384.872c14.533-.112,29.066,0,43.6,0q52.89,124.572,105.877,249.073h79.39v43.219H741.97q20.391,47.648,40.641,95.478H728.292c-13.1-31.5-26.038-63.063-39.239-94.6-64.465.182-128.8-.462-193.2-.252-13.033,31.686-26.43,63.259-39.688,94.847H403.473q85.486-193.857,170.8-387.7ZM514.521,633.945c52.119,0,104.223-1.037,156.341-.6-25.463-63.063-50.576-126.211-76.208-189.19Q554.559,539.027,514.521,633.945Zm219.1-56.379c2.592,17.307,19.83,30.691,37.249,28.757,21.273-.617,37.53-23.824,31.237-44.131-4.2-17.069-22.422-28.715-39.687-25.421-18.765,2.508-32.569,22.282-28.771,40.8Z" fill="#fff"/>
</svg>
