<svg class="logo-svg" xmlns="http://www.w3.org/2000/svg" viewBox="0 0 512 512" width="512" height="512">
	<path fill="#F39031" d="M182.25,10.77a255.75,255.75,0,0,1,280.09,93.74C494,147.19,511.2,200,512,253v6.16c-.84,50.62-16.48,101-45.51,142.54C386.21,518,226.88,547.11,110.63,466.82a255.81,255.81,0,0,1-65.77-66.06C16.25,359.41.82,309.41,0,259.19V253c.8-53.07,18-105.83,49.66-148.5A256.34,256.34,0,0,1,182.25,10.77Z"/>
	<path class="letter" fill="#FFF" d="M238.69,96.43c10.37-.08,20.74,0,31.11,0q37.74,88.89,75.55,177.73H402V305h-43.7q14.55,34,29,68.13H348.54c-9.35-22.48-18.58-45-28-67.5-46,.13-91.91-.33-137.86-.18-9.3,22.61-18.86,45.14-28.32,67.68h-37.6q61-138.33,121.88-276.65ZM196,274.16c37.19,0,74.37-.74,111.56-.43-18.17-45-36.09-90.06-54.38-135Q224.57,206.43,196,274.16Z"/>
	<path class="dot" fill="#FFF" d="M352.34,233.93c1.85,12.35,14.15,21.9,26.58,20.52,15.18-.44,26.78-17,22.29-31.49-3-12.18-16-20.49-28.32-18.14-13.39,1.79-23.24,15.9-20.53,29.11Z"/>
</svg>
