<svg xmlns="http://www.w3.org/2000/svg" viewBox="0 0 512 512" width="512" height="512">
	<g>
		<path d="M196,274.16c37.19,0,74.37-0.74,111.56-0.43c-18.17-45-36.09-90.06-54.38-135C234.11,183.86,215.05,229.01,196,274.16z"/>
		<path d="M462.34,104.51C398.28,17.06,286.04-20.5,182.25,10.77C129.06,26.82,82.53,59.71,49.66,104.5C18,147.17,0.8,199.93,0,253
			v6.19c0.82,50.22,16.25,100.22,44.86,141.57c17.69,25.86,39.99,48.25,65.77,66.06C226.88,547.11,386.21,518,466.49,401.7
			c29.03-41.54,44.67-91.92,45.51-142.54V253C511.2,200,494,147.19,462.34,104.51z M402,305h-43.7c9.7,22.67,19.37,45.38,29,68.13
			h-38.76c-9.35-22.48-18.58-45-28-67.5c-46,0.13-91.91-0.33-137.86-0.18c-9.3,22.61-18.86,45.14-28.32,67.68h-37.6
			c40.67-92.22,81.29-184.44,121.88-276.65l0.05-0.05c10.37-0.08,20.74,0,31.11,0c25.16,59.26,50.34,118.5,75.55,177.73H402V305z
			 M378.92,254.45c-12.43,1.38-24.73-8.17-26.58-20.52h0.02c-2.71-13.21,7.14-27.32,20.53-29.11c12.32-2.35,25.32,5.96,28.32,18.14
			C405.7,237.45,394.1,254.01,378.92,254.45z"/>
	</g>
</svg>
